<svg width="517" height="460" viewBox="0 0 517 460" fill="none" xmlns="http://www.w3.org/2000/svg">
<path fill-rule="evenodd" clip-rule="evenodd" d="M16.3965 64.0247C8.58152 62.8727 3.58152 58.5397 1.39652 51.0247C1.33152 50.5867 1.49752 50.2527 1.89652 50.0247C3.76352 55.8967 7.93052 60.0627 14.3965 62.5247C35.7295 62.8577 57.0635 63.1917 78.3965 63.5247C57.7325 64.0247 37.0655 64.1917 16.3965 64.0247Z" fill="#023479"/>
<path fill-rule="evenodd" clip-rule="evenodd" d="M123.397 62.0247C124.187 63.3187 125.187 64.4857 126.397 65.5247C170.397 65.8577 214.397 66.1917 258.397 66.5247C260.984 68.0497 261.817 70.2167 260.897 73.0247C252.289 89.9117 243.456 106.578 234.397 123.025C242.259 106.299 250.426 89.6327 258.897 73.0247C259.617 71.4127 259.451 69.9127 258.397 68.5247C214.73 68.1917 171.064 67.8577 127.397 67.5247C124.348 66.3957 123.015 64.5627 123.397 62.0247Z" fill="#154686"/>
<path fill-rule="evenodd" clip-rule="evenodd" d="M393.396 66.0246C430.398 65.8576 467.398 66.0246 504.396 66.5246C507.652 67.6406 510.318 69.4736 512.396 72.0246C512.461 72.4626 512.295 72.7966 511.896 73.0246C509.645 71.1476 507.145 69.6476 504.396 68.5246C467.064 68.0246 429.731 67.8576 392.396 68.0246C392.729 67.3576 393.063 66.6916 393.396 66.0246Z" fill="#164788"/>
<path fill-rule="evenodd" clip-rule="evenodd" d="M393.398 66.0247C393.065 66.6917 392.731 67.3577 392.398 68.0247C380.007 85.7857 367.84 103.786 355.898 122.025C354.978 124.833 355.811 127 358.398 128.525C380.731 128.858 403.065 129.192 425.398 129.525C425.942 130.242 426.609 130.742 427.398 131.025C429.136 132.644 429.636 134.644 428.898 137.025C425.566 141.852 422.066 146.518 418.398 151.025C372.391 200.366 326.725 250.032 281.398 300.025C280.731 300.025 280.398 300.358 280.398 301.025C271.633 310.962 262.633 320.796 253.398 330.525C249.39 331.941 247.057 330.607 246.398 326.525C263.973 282.204 281.14 237.704 297.898 193.025C298.565 190.692 298.565 188.358 297.898 186.025C297.148 185.399 296.314 184.899 295.398 184.525C275.065 184.192 254.731 183.858 234.398 183.525C229.783 182.401 228.283 179.568 229.898 175.025C258.487 119.514 286.82 63.8477 314.898 8.02475C317.103 5.48475 319.603 3.31775 322.398 1.52475C339.501 0.378748 356.668 -0.121252 373.898 0.0247477C390.065 0.191748 406.231 0.357748 422.398 0.524748C429.112 2.11475 431.612 6.28075 429.898 13.0247C417.511 30.5717 405.344 48.2388 393.398 66.0247Z" fill="#FAB413"/>
<path fill-rule="evenodd" clip-rule="evenodd" d="M427.396 131.025C428.462 129.833 429.295 130.166 429.896 132.025C430.563 134.025 430.563 136.025 429.896 138.025C426.86 143.218 423.027 147.551 418.396 151.025C422.064 146.518 425.564 141.852 428.896 137.025C429.634 134.644 429.134 132.644 427.396 131.025Z" fill="#174AAC"/>
<path fill-rule="evenodd" clip-rule="evenodd" d="M392.396 68.0246C429.731 67.8576 467.064 68.0246 504.396 68.5246C507.145 69.6476 509.645 71.1476 511.896 73.0246C512.295 72.7966 512.461 72.4626 512.396 72.0246C514.032 73.2736 515.199 74.9406 515.896 77.0246C516.563 80.3576 516.563 83.6916 515.896 87.0246C501.561 148.702 487.228 210.368 472.896 272.025C467.535 287.889 456.702 297.555 440.396 301.025C387.227 301.357 334.227 301.024 281.396 300.025C326.723 250.032 372.389 200.366 418.396 151.025C423.027 147.551 426.86 143.218 429.896 138.025C430.563 136.025 430.563 134.025 429.896 132.025C429.295 130.166 428.462 129.833 427.396 131.025C426.607 130.742 425.94 130.242 425.396 129.525C403.063 129.192 380.729 128.858 358.396 128.525C355.809 127 354.976 124.833 355.896 122.025C367.838 103.786 380.005 85.7856 392.396 68.0246Z" fill="#015C94"/>
<path fill-rule="evenodd" clip-rule="evenodd" d="M216.396 205.025C234.732 204.858 253.066 205.025 271.396 205.525C272.795 206.587 273.795 207.92 274.396 209.525C271.959 216.004 269.625 222.504 267.396 229.025C266.853 228.965 266.52 228.632 266.396 228.025C268.595 222.093 270.595 216.093 272.396 210.025C272.367 208.496 271.7 207.329 270.396 206.525C251.018 206.372 233.018 205.872 216.396 205.025Z" fill="#042D76"/>
<path fill-rule="evenodd" clip-rule="evenodd" d="M433.396 348.025C440.36 348.833 445.027 352.499 447.396 359.025C447.086 360.263 446.586 360.263 445.896 359.025C443.889 353.687 440.055 350.521 434.396 349.525C347.396 349.192 260.396 348.858 173.396 348.525C260.062 348.025 346.729 347.858 433.396 348.025Z" fill="#013D7E"/>
<path fill-rule="evenodd" clip-rule="evenodd" d="M123.397 62.0247C123.015 64.5627 124.348 66.3957 127.397 67.5247C171.064 67.8577 214.73 68.1917 258.397 68.5247C259.451 69.9127 259.617 71.4127 258.897 73.0247C250.426 89.6327 242.259 106.299 234.397 123.025C226.086 140.98 217.253 158.646 207.897 176.025C204.015 183.271 203.681 190.604 206.897 198.025C209.431 201.417 212.598 203.75 216.397 205.025C233.019 205.872 251.019 206.372 270.397 206.525C271.701 207.329 272.368 208.496 272.397 210.025C270.596 216.093 268.596 222.093 266.397 228.025C266.521 228.632 266.854 228.965 267.397 229.025C259.006 252.695 250.506 276.362 241.897 300.025C218.136 300.853 194.303 301.353 170.397 301.525C158 306.5 153.218 313.999 152.897 325.025C152.576 336.051 157.743 343.218 168.397 346.525C256.898 346.692 345.231 347.192 433.397 348.025C346.73 347.858 260.063 348.025 173.397 348.525C260.397 348.858 347.397 349.192 434.397 349.525C440.056 350.521 443.89 353.687 445.897 359.025C446.587 360.263 447.087 360.263 447.397 359.025C451.256 376.058 444.256 385.225 426.397 386.525C442.024 404.156 443.524 422.989 430.897 443.025C411.574 462.955 390.408 465.122 367.397 449.525C348.242 429.018 347.575 408.018 365.397 386.525C315.064 385.858 264.73 385.858 214.397 386.525C230.86 405.302 231.693 424.802 216.897 445.025C198.115 462.604 177.948 464.437 156.397 450.525C137.667 432.138 135.5 411.971 149.897 390.025C152.064 387.858 154.23 385.692 156.397 383.525C123.848 372.635 109.681 350.135 113.897 316.025C118.578 302.326 125.578 289.992 134.897 279.025C135.064 277.692 135.23 276.358 135.397 275.025C117.723 206.664 99.8898 138.331 81.8968 70.0247C81.1898 68.4437 80.3568 66.9437 79.3968 65.5247C58.2258 65.3567 37.2258 64.8567 16.3968 64.0247C37.0658 64.1917 57.7328 64.0247 78.3968 63.5247C57.0638 63.1917 35.7298 62.8577 14.3968 62.5247C7.93084 60.0627 3.76384 55.8967 1.89684 50.0247C1.49784 50.2527 1.33184 50.5867 1.39684 51.0247C-2.62616 37.6557 2.04084 28.4887 15.3968 23.5247C39.3968 22.8577 63.3968 22.8577 87.3968 23.5247C107.887 28.5117 119.887 41.3447 123.397 62.0247Z" fill="#015C94"/>
</svg>
